<svg width="82" height="80" viewBox="0 0 82 80" fill="none" xmlns="http://www.w3.org/2000/svg">
<path d="M7.45998 72.0029L0 0H82L74.5301 71.9914L40.9502 80L7.45998 72.0029Z" fill="#1572B6"/>
<path d="M41 73.8799L68.1363 67.4085L74.5201 5.88852H41V73.8799Z" fill="#33A9DC"/>
<path d="M41 31.9743H54.5847L55.5214 22.9314H41V14.1H41.0365H66.7413L66.4955 16.4686L63.9745 40.8057H41V31.9743Z" fill="white"/>
<path d="M41.0631 54.9087L41.0166 54.9201L29.5842 52.2629L28.8535 45.2201H23.2967H18.547L19.9852 59.0858L41.0133 64.1087L41.0631 64.0972V54.9087Z" fill="#EBEBEB"/>
<path d="M53.7115 40.4314L52.4759 52.2571L41.0269 54.9143V64.1029L62.0716 59.0857L62.2277 57.5943L64.0113 40.4314H53.7115Z" fill="white"/>
<path d="M41.0368 14.1V19.5857V22.9086V22.9314H16.272H16.2388L16.0329 20.9457L15.5646 16.4686L15.3188 14.1H41.0368Z" fill="#EBEBEB"/>
<path d="M41.0002 31.9742V37.46V40.7828V40.8057H29.7438H29.7106L29.5047 38.82L29.0397 34.3428L28.7939 31.9742H41.0002Z" fill="#EBEBEB"/>
</svg>
