<svg width="94" height="80" viewBox="0 0 94 80" fill="none" xmlns="http://www.w3.org/2000/svg">
<path d="M81.6315 0H48.7669L41.3458 13.1765H0V65.8823H89.0526V0H81.6315ZM81.6315 13.1765H52.6541L56.5413 6.58823H81.6315V13.1765Z" fill="#9B9B9B"/>
<path fill-rule="evenodd" clip-rule="evenodd" d="M93.9999 47.0588C93.9999 53.574 91.8237 59.9428 87.7466 65.3599C83.6694 70.7771 77.8743 74.9992 71.0942 77.4925C64.3141 79.9857 56.8535 80.6381 49.6558 79.367C42.4581 78.096 35.8466 74.9586 30.6573 70.3517C25.4681 65.7448 21.9341 59.8753 20.5024 53.4853C19.0707 47.0954 19.8055 40.472 22.6139 34.4528C25.4223 28.4336 30.1782 23.2889 36.2801 19.6692C42.382 16.0496 49.556 14.1176 56.8947 14.1176C66.7356 14.1176 76.1735 17.5882 83.132 23.7659C90.0906 29.9436 93.9999 38.3223 93.9999 47.0588Z" fill="white"/>
<path fill-rule="evenodd" clip-rule="evenodd" d="M65.7752 69.3334C65.8692 68.2161 65.693 67.0939 65.2584 66.0421C64.8239 64.9902 64.141 64.033 63.2556 63.2346C71.5212 62.4189 80.1968 59.633 80.1968 46.9805C80.2556 43.7076 78.8898 40.5407 76.3838 38.1397C77.5154 35.2977 77.3827 32.1794 76.0127 29.4213C76.0127 29.4213 72.9029 28.5365 65.8211 32.8001C59.7398 31.3193 53.3216 31.3193 47.2403 32.8001C40.1549 28.5365 37.0381 29.4213 37.0381 29.4213C35.676 32.1818 35.5497 35.2993 36.6847 38.1397C34.1823 40.5368 32.8144 43.6968 32.8646 46.9648C32.8646 59.5859 41.5261 62.4126 49.7669 63.244C48.4193 64.4135 47.5839 65.9702 47.4099 67.6361C46.4999 68.091 45.4973 68.381 44.4602 68.4894C43.423 68.5978 42.372 68.5224 41.3679 68.2677C40.3638 68.013 39.4266 67.5839 38.6106 67.0054C37.7945 66.4268 37.1159 65.7103 36.614 64.8973C36.0195 63.9849 35.1983 63.2048 34.213 62.6166C33.2277 62.0284 32.1042 61.6475 30.9281 61.5028C30.9281 61.5028 27.3059 61.462 30.6737 63.5075C32.6505 64.6247 34.1121 66.3328 34.7941 68.3232C34.7941 68.3232 36.9709 74.7326 47.2933 72.7405C47.2933 75.4887 47.3427 77.5624 47.3427 78.3436C47.3364 78.5327 47.2983 78.7198 47.2297 78.8989C53.3298 80.3504 59.7528 80.3504 65.853 78.8989C65.7821 78.7243 65.7404 78.5414 65.7293 78.3561C65.7293 77.2769 65.7752 73.7256 65.7752 69.3334Z" fill="#333333"/>
</svg>
