<svg width="69" height="80" viewBox="0 0 69 80" fill="none" xmlns="http://www.w3.org/2000/svg">
<path d="M6.27959 71.7812L0 0H69L62.712 71.7698L34.4581 79.7537L6.27959 71.7812Z" fill="#E44F26"/>
<path d="M34.5 73.6525L57.3323 67.201L62.7036 5.87036H34.5V73.6525Z" fill="#F1662A"/>
<path d="M34.5001 32.4911H23.0699L22.2818 23.4761H34.5001V14.6718H34.4693H12.8415L13.0483 17.036L15.1694 41.2953H34.5001V32.4911Z" fill="#EBEBEB"/>
<path d="M34.5 55.3548L34.4609 55.3662L24.8417 52.7201L24.2269 45.6989H19.5514H15.5551L16.7651 59.5191L34.4609 64.5265L34.5 64.5151V55.3548Z" fill="#EBEBEB"/>
<path d="M34.4693 32.4911V41.2953H45.1058L44.1053 52.7143L34.4693 55.3633V64.5236L52.179 59.519L52.3076 58.0322L54.3365 34.8552L54.5489 32.4911H52.2209H34.4693Z" fill="white"/>
<path d="M34.4693 14.6718V20.1407V23.4561V23.4761H55.3062H55.3342L55.5075 21.4993L55.9015 17.036L56.1083 14.6718H34.4693Z" fill="white"/>
</svg>
