<svg width="80" height="80" viewBox="0 0 80 80" fill="none" xmlns="http://www.w3.org/2000/svg">
<path d="M40 47.9467C43.9449 47.9467 47.1429 44.3528 47.1429 39.9195C47.1429 35.4861 43.9449 31.8922 40 31.8922C36.0551 31.8922 32.8572 35.4861 32.8572 39.9195C32.8572 44.3528 36.0551 47.9467 40 47.9467Z" fill="#00D8FF"/>
<path d="M40 58.3242C31.4147 58.5576 22.8508 57.257 14.6286 54.4711C10.8303 53.118 7.28781 50.9865 4.18 48.1842C2.99409 47.2269 2.00649 45.9926 1.28498 44.566C0.563465 43.1394 0.125113 41.5543 0 39.9194C0 34.6117 5.18857 29.4101 13.88 26.0065C22.3221 22.9907 31.1426 21.5291 40 21.6782C48.7392 21.541 57.4416 22.9762 65.7771 25.9295C69.4351 27.24 72.8575 29.2686 75.8857 31.921C77.0514 32.8337 78.0241 34.0233 78.7351 35.4055C79.4461 36.7877 79.878 38.3287 80 39.9194C80 45.4357 74.2 51.0258 64.8571 54.5C56.7941 57.1952 48.4109 58.4849 40 58.3242ZM40 25.5185C31.526 25.3912 23.0881 26.7807 15.0029 29.6348C7.00286 32.7719 3.41714 37.0617 3.41714 39.9097C3.41714 42.8894 7.27143 47.5741 15.7343 50.8268C23.6002 53.4785 31.7903 54.7129 40 54.484C48.0469 54.6457 56.0684 53.4221 63.7857 50.8557C72.5714 47.5838 76.5714 42.8926 76.5714 39.9194C76.4273 38.899 76.0964 37.9234 75.5997 37.054C75.103 36.1847 74.4513 35.4405 73.6857 34.8686C70.9764 32.5155 67.9191 30.7177 64.6543 29.5578C56.6801 26.7443 48.3571 25.3806 40 25.5185Z" fill="#00D8FF"/>
<path d="M23.7714 79.9561C22.4385 79.9904 21.1214 79.627 19.9543 78.9029C15.8628 76.2507 14.4457 68.6023 16.1628 58.4398C18.0561 48.7143 21.3365 39.397 25.8771 30.8486C30.1363 22.2726 35.5891 14.5177 42.0285 7.87784C44.8661 4.97103 48.1396 2.65224 51.6971 1.02899C52.9839 0.351299 54.3875 0 55.8085 0C57.2296 0 58.6332 0.351299 59.92 1.02899C64.1743 3.78394 65.5828 12.2222 63.5971 23.0525C61.6454 32.2504 58.4501 41.0574 54.1228 49.1668C50.0135 57.6415 44.7325 65.3289 38.4771 71.9417C35.5365 74.9624 32.1238 77.3454 28.4114 78.9703C26.9252 79.5902 25.3564 79.9235 23.7714 79.9561ZM28.8371 32.7559C24.506 40.9415 21.3619 49.8497 19.5228 59.1462C17.9428 68.506 19.46 74.1347 21.6657 75.5668C23.9514 77.0534 29.5 75.6438 36.2371 69.0294C42.2086 62.6941 47.2492 55.3356 51.1714 47.2274C55.3169 39.4747 58.382 31.0546 60.26 22.2594C62.1285 12.0648 60.5143 5.82286 58.2228 4.33943C57.364 3.96962 56.4462 3.80408 55.5276 3.85326C54.6089 3.90245 53.7093 4.1653 52.8857 4.6252C49.7191 6.09369 46.8078 8.17847 44.2857 10.7837C38.1333 17.1438 32.9248 24.5679 28.8571 32.7751L28.8371 32.7559Z" fill="#00D8FF"/>
<path d="M56.2199 79.9978C52.3485 79.9978 47.4313 77.3649 42.3113 72.4169C35.7591 65.7166 30.2141 57.8696 25.8913 49.1796C21.4077 40.749 18.1533 31.5664 16.2513 21.9801C15.4265 17.7626 15.2737 13.4141 15.7999 9.13654C15.9216 7.54974 16.3515 6.01225 17.0594 4.6325C17.7674 3.25274 18.736 2.06432 19.8971 1.15104C24.1456 -1.61354 31.3542 1.2281 38.7113 8.56821C44.8273 15.0612 50.021 22.57 54.1113 30.8326C58.5922 39.0664 61.8808 48.0479 63.8542 57.4413C64.7145 61.8136 64.8472 66.3271 64.2456 70.7537C64.1025 72.3861 63.6469 73.9645 62.9101 75.3805C62.1734 76.7965 61.1728 78.0168 59.9771 78.9575C58.829 79.6726 57.5322 80.0317 56.2199 79.9978ZM28.8485 47.2467C32.9954 55.5515 38.2922 63.0615 44.5399 69.495C50.9656 75.7081 56.0628 77.0438 58.2542 75.5957C60.5399 74.1026 62.2256 68.0083 60.4885 58.1477C58.5853 49.1794 55.431 40.6062 51.1428 32.7463C47.2394 24.8382 42.282 17.6482 36.4428 11.4259C29.5171 4.51606 23.8999 2.97162 21.6113 4.46147C20.898 5.11291 20.3127 5.92347 19.8922 6.84199C19.4718 7.76051 19.2253 8.76703 19.1685 9.79799C18.7142 13.6128 18.8622 17.4878 19.6056 21.2448C21.4351 30.4124 24.5563 39.1925 28.8513 47.2531L28.8485 47.2467Z" fill="#00D8FF"/>
</svg>
