<svg width="89" height="80" viewBox="0 0 89 80" fill="none" xmlns="http://www.w3.org/2000/svg">
<path d="M0 0H89V80H0V0Z" fill="#F5DE19"/>
<path d="M59.7858 62.5001C60.5441 63.8846 61.7223 65.0484 63.1845 65.8572C64.6466 66.666 66.3333 67.0869 68.0501 67.0715C71.5148 67.0715 73.7302 65.5143 73.7302 63.3572C73.7302 60.7858 71.4544 59.8658 67.6401 58.3658L65.5486 57.5601C59.5093 55.2486 55.5043 52.3543 55.5043 46.2343C55.5043 40.5972 60.2721 36.3029 67.7513 36.3029C70.1725 36.1458 72.5915 36.6328 74.7067 37.7034C76.8218 38.7739 78.5396 40.3806 79.6455 42.3229L73.1072 46.0801C72.6813 45.117 71.9398 44.293 70.981 43.7174C70.0222 43.1418 68.8914 42.8418 67.7386 42.8572C67.2356 42.8119 66.7277 42.8614 66.2471 43.0023C65.7666 43.1432 65.324 43.3726 64.9475 43.6758C64.571 43.979 64.2689 44.3494 64.0605 44.7633C63.852 45.1773 63.7418 45.6257 63.7368 46.0801C63.7368 48.3343 65.2911 49.2486 68.8797 50.6515L70.9712 51.4572C78.0785 54.1972 82.0962 56.9886 82.0962 63.2658C82.0962 70.0343 76.1809 73.7429 68.2376 73.7429C65.1427 73.9202 62.0568 73.2885 59.3523 71.9243C56.6479 70.56 54.4404 68.5213 52.9964 66.0543L59.7858 62.5001ZM30.241 63.1515C31.5537 65.2458 32.7489 67.0172 35.6223 67.0172C38.3686 67.0172 40.1041 66.0515 40.1041 62.2943V36.7315H48.4669V62.3943C48.4669 70.1772 43.3812 73.7201 35.9783 73.7201C33.3616 73.8486 30.7628 73.2624 28.5236 72.0386C26.2844 70.8147 24.5096 69.0104 23.4325 66.8629L30.241 63.1515Z" fill="black"/>
</svg>
